<svg xmlns="http://www.w3.org/2000/svg" width="23.18" height="23.125" viewBox="0 0 23.18 23.125">
  <metadata><?xpacket begin="﻿" id="W5M0MpCehiHzreSzNTczkc9d"?>
<x:xmpmeta xmlns:x="adobe:ns:meta/" x:xmptk="Adobe XMP Core 5.6-c138 79.159824, 2016/09/14-01:09:01        ">
   <rdf:RDF xmlns:rdf="http://www.w3.org/1999/02/22-rdf-syntax-ns#">
      <rdf:Description rdf:about=""/>
   </rdf:RDF>
</x:xmpmeta>
                                                                                                    
                                                                                                    
                                                                                                    
                                                                                                    
                                                                                                    
                                                                                                    
                                                                                                    
                                                                                                    
                                                                                                    
                                                                                                    
                                                                                                    
                                                                                                    
                                                                                                    
                                                                                                    
                                                                                                    
                                                                                                    
                                                                                                    
                                                                                                    
                                                                                                    
                                                                                                    
                           
<?xpacket end="w"?></metadata>
<defs>
    <style>
      .cls-1 {
        
      }
    </style>
  </defs>
  <path class="cls-1" d="M1324.06,17.556a5.913,5.913,0,0,0-5.9,5.908,0.4,0.4,0,0,0,.8,0,5.111,5.111,0,0,1,5.1-5.109A0.4,0.4,0,1,0,1324.06,17.556Zm0.01-3.12a9.006,9.006,0,0,0-7.73,13.684c-0.7.708-5.74,5.757-5.82,5.84a2.084,2.084,0,0,0,0,2.956,2.126,2.126,0,0,0,1.41.646l0.09,0a1.922,1.922,0,0,0,1.36-.558c0.01-.014.02-0.021,5.9-5.9A9.025,9.025,0,1,0,1324.07,14.436Zm-11.38,21.843a1.009,1.009,0,0,1-1.47-.07,1.1,1.1,0,0,1-.04-1.5c0.03-.021.04-0.033,5.74-5.744a8.875,8.875,0,0,0,1.53,1.563C1317.36,31.616,1312.76,36.215,1312.69,36.279Zm11.38-4.985a7.829,7.829,0,1,1,7.83-7.829A7.845,7.845,0,0,1,1324.07,31.293Z" transform="translate(-1309.91 -14.438)"/>
</svg>
