<svg xmlns="http://www.w3.org/2000/svg" width="23.94" height="23.938" viewBox="0 0 23.94 23.938">
  <metadata><?xpacket begin="﻿" id="W5M0MpCehiHzreSzNTczkc9d"?>
<x:xmpmeta xmlns:x="adobe:ns:meta/" x:xmptk="Adobe XMP Core 5.6-c138 79.159824, 2016/09/14-01:09:01        ">
   <rdf:RDF xmlns:rdf="http://www.w3.org/1999/02/22-rdf-syntax-ns#">
      <rdf:Description rdf:about=""/>
   </rdf:RDF>
</x:xmpmeta>
                                                                                                    
                                                                                                    
                                                                                                    
                                                                                                    
                                                                                                    
                                                                                                    
                                                                                                    
                                                                                                    
                                                                                                    
                                                                                                    
                                                                                                    
                                                                                                    
                                                                                                    
                                                                                                    
                                                                                                    
                                                                                                    
                                                                                                    
                                                                                                    
                                                                                                    
                                                                                                    
                           
<?xpacket end="w"?></metadata>
<defs>
    <style>
      .cls-1 {
        fill: #fff;
        fill-rule: evenodd;
      }
    </style>
  </defs>
  <path class="cls-1" d="M1380.66,35.974a5.317,5.317,0,0,1-5.31-5.313V30.486l-4.69-2.345a5.312,5.312,0,1,1,0-8.282l4.69-2.345V17.338a5.321,5.321,0,1,1,1.99,4.142l-4.69,2.345v0.349l4.69,2.347A5.31,5.31,0,1,1,1380.66,35.974Zm-10.18-9.163,6.04,3.018-0.04.375c-0.01.148-.02,0.31-0.02,0.457a4.209,4.209,0,1,0,1.34-3.074l-0.28.262-6.04-3.017,0.03-.375a3.5,3.5,0,0,0,0-.915l-0.03-.375,6.04-3.018,0.28,0.262a4.2,4.2,0,1,0-1.34-3.073c0,0.149.01,0.31,0.02,0.458l0.04,0.375-6.04,3.019-0.28-.262a4.2,4.2,0,1,0,0,6.147Z" transform="translate(-1362.03 -12.031)"/>
</svg>
