<svg xmlns="http://www.w3.org/2000/svg" viewBox="0 0 100 34" width="100" height="34" fill="#f7ca1f">
    <path d="M11.1666667,9.75238095 L12.2119048,8.7952381 L14.6547619,8.7952381 L14.6547619,2.10952381 L14.6357143,1.43095238 L6.98333333,1.43095238 L0.704761905,6.69047619 L0.704761905,12.652381 L11.1666667,12.652381 L11.1666667,9.75238095 L11.1666667,9.75238095 Z M16.747619,1.43095238 L16.747619,8.7952381 L19.8880952,8.7952381 L20.9333333,9.75238095 L20.9333333,11.9261905 L0.704761905,24.9238095 L0.704761905,31.9357143 L5.58809524,31.9357143 L15.3547619,25.6261905 L30.7,15.8071429 L30.7,6.69047619 L25.1190476,1.43333333 L16.747619,1.43095238 L16.747619,1.43095238 Z M21.9,23.8619048 L9.77380952,31.652381 L9.77380952,31.9333333 L30.7,31.9333333 L30.7,24.5238095 L30.6619048,23.8690476 L21.9,23.8619048 L21.9,23.8619048 Z M55.1095238,6.69047619 L46.0404762,6.69047619 L46.0404762,14.7571429 L36.2761905,14.7571429 L36.2761905,23.8452381 L46.0404762,23.8547619 L46.0404762,31.9404762 L55.0785714,31.9404762 L55.0880952,23.8619048 L64.8761905,23.8738095 L64.8761905,14.7642857 L55.1,14.7642857 L55.1095238,6.69047619 L55.1095238,6.69047619 Z M79.5238095,9.75238095 L80.5690476,8.7952381 L83.0095238,8.7952381 L83.0095238,2.10952381 L82.9928571,1.43095238 L75.3357143,1.43095238 L69.0571429,6.68809524 L69.0571429,12.65 L79.5238095,12.65 L79.5238095,9.75238095 L79.5238095,9.75238095 Z M93.4738095,1.43095238 L85.1047619,1.43095238 L85.1047619,8.7952381 L88.2428571,8.7952381 L89.2880952,9.75238095 L89.2880952,11.9261905 L69.0595238,24.9238095 L69.0595238,31.9333333 L73.9452381,31.9333333 L83.7119048,25.6238095 L99.0547619,15.8071429 L99.0547619,6.69047619 L93.4738095,1.43095238 L93.4738095,1.43095238 Z M78.1261905,31.6547619 L78.1261905,31.9357143 L99.0547619,31.9357143 L99.0547619,24.5261905 L99.0547619,23.8714286 L90.2571429,23.8642857 L78.1261905,31.6547619 L78.1261905,31.6547619 Z"></path>
</svg>
