<svg xmlns="http://www.w3.org/2000/svg" viewBox="0 0 101 79" width="101" height="79" fill="#e30e87">
    <path d="M59.0120297,51.8848554 C60.0471862,49.4145341 65.1391832,33.2925795 70.1933417,28.2140963 C75.4312877,22.9518254 78.30432,25.0545715 78.30432,25.0545715 C78.30432,25.0545715 78.6367593,22.8004709 76.3961725,21.0328668 C73.4934098,18.7436304 69.8176582,20.0058186 67.0419252,22.6031696 C65.7094653,23.8545468 63.7229378,27.2789418 62.1796626,30.8573941 C59.8985345,36.130476 57.7822745,41.614373 56.971447,42.6279075 C55.9687236,43.898204 53.7173257,44.2468598 54.776807,40.808951 C55.8714242,37.2332015 56.7390097,36.0439877 57.2633449,34.5682815 C58.6201297,30.6736065 57.7471387,29.3870935 57.4768628,28.8870831 C56.9687442,27.9465232 56.0389953,27.4384046 55.0632994,27.1843453 C53.0470416,26.6519018 51.1659217,27.2275894 51.1659217,27.2275894 C51.9632354,29.3600659 52.9281202,30.5600907 50.4280686,37.7115897 C50.3037417,38.0656511 50.1902258,38.4089014 50.0902238,38.738638 C49.6226465,39.9737986 48.27397,42.5279054 47.311788,43.5225205 C46.1766294,44.6874095 44.8630888,45.7685129 43.5414399,46.2117653 C42.3062792,46.6306928 38.9710752,46.5793404 40.5711082,43.3468412 C41.1522013,42.1792496 42.5954744,40.9251696 44.5495688,39.6846034 C47.9658556,37.5250994 49.1685831,34.6899057 48.9334431,32.5168878 C48.7388445,30.7492838 48.017208,28.6546459 45.106337,27.6357059 C42.8981833,26.862717 39.768389,27.7275997 38.4602538,29.1492507 C36.8277877,30.9249631 36.8277877,32.3628306 36.9629256,33.9736747 C36.9629256,33.9736747 38.2953856,32.3222892 39.9737986,31.6898437 C40.7251655,31.4087568 41.535993,31.3979458 42.1927633,31.6060582 C43.3008943,31.9601196 43.7117136,33.219605 42.9738606,34.3574664 C41.1494986,37.1683352 37.8683497,38.514309 36.4412932,39.8359579 C35.7250622,40.4981338 35.1061305,41.1494986 34.6682836,41.7981606 C32.7195947,44.2360488 31.6844382,46.1441963 30.0114307,47.0171873 C28.8249197,47.6334163 27.9627397,47.4117901 27.9546314,46.3333894 C27.9492259,45.3495853 28.8978942,42.946833 30.0438638,40.730571 C30.7763113,39.3116228 32.8412188,36.0142574 33.5520443,34.7223388 C34.4574684,33.0736561 35.0845084,31.0682093 33.5655581,29.7789934 C30.6222541,27.2897528 27.4275935,29.3438493 27.4275935,29.3438493 C27.6330032,31.3384851 26.5708191,33.6628574 24.6410495,37.4602332 C22.665333,41.357611 20.3625827,48.4658659 25.0140302,49.8496783 C26.8924473,50.4091493 28.9249217,50.1280624 30.5141438,49.1145279 C31.5952472,48.4280273 32.8547326,47.0117818 34.0088105,45.5712115 C34.3331416,46.8874549 35.2926208,48.1523459 37.2521208,48.8145217 C43.4792764,49.7523789 47.6766604,46.5928542 49.6307548,43.6657667 C50.54699,48.3361335 56.2173773,47.6955797 56.2173773,47.6955797 C56.2173773,47.6955797 55.7038532,49.695621 55.0038388,50.7280748 C43.8522571,48.2199149 24.489695,50.6605058 14.8732802,57.5390263 C12.905672,58.9471635 11.3434775,60.541791 10.3461596,62.3202061 C10.0407479,62.8661633 8.65963832,64.9418819 8.88126452,67.8419418 C9.10559347,70.8636258 11.0191465,72.8744781 11.9002458,73.5744926 C16.2138484,76.9826711 25.1924122,77.9205283 33.3196071,76.0637332 C47.5171976,72.8339368 54.7714015,60.4607082 56.1606194,58.2930959 C71.1284961,64.4310605 63.7553709,75.1502008 62.444533,76.2204932 C65.5770301,77.0502401 74.3231567,73.6501698 73.6555754,65.2851322 C72.9933995,56.9255001 61.7850599,52.5740588 59.0120297,51.8848554 L59.0120297,51.8848554 Z M47.7415266,63.3715792 C46.114466,65.2743212 43.0792681,68.2473555 35.8196587,71.2284982 C33.0601423,72.3636568 30.1681907,73.1690788 26.705957,73.2285395 C24.3194212,73.2744864 20.7679965,73.6799002 15.7246491,71.252823 C14.6273291,70.7230823 13.6002809,69.8257665 13.1651368,68.2851942 C12.6435044,66.4311018 14.3678643,63.8391564 19.5328359,60.7336868 C25.9140487,56.8876615 31.843901,56.1011587 36.8061656,55.5741208 C46.2306846,54.5768029 52.5902754,56.7930649 52.5902754,56.7930649 C50.7334803,60.1201607 49.2091245,61.6526247 47.7415266,63.3715792 L47.7415266,63.3715792 Z"></path>
    <path d="M96.2155008,25.6221508 C93.2748995,23.1329102 90.0775362,25.1843039 90.0775362,25.1843039 C90.2829458,27.1789397 89.2180589,29.5033121 87.2909921,33.3006878 C85.8963687,36.0439877 84.3341743,40.5657027 85.1287853,43.3630578 C86.0315066,46.5415018 90.1883493,46.0063556 91.064043,45.8414874 C93.1613836,45.4522901 93.8830202,44.0117198 93.7586933,42.7495316 C92.3910975,43.8576626 91.6262168,43.8603654 91.1721534,43.417113 C90.8991747,43.1549454 90.1288886,42.4468227 90.9613382,40.3629958 C91.4018878,39.2440538 92.0424416,37.8413221 92.6965092,36.5656201 C93.4343622,35.1466719 95.496567,31.8520092 96.2046897,30.5627934 C97.1155194,28.9168135 97.7371538,26.9113666 96.2155008,25.6221508 L96.2155008,25.6221508 Z"></path>
    <path d="M22.6734413,37.495369 C23.3950778,34.8466657 23.7464364,32.1412044 23.6302178,29.6735859 C23.5248102,27.4573239 23.0356109,26.1870274 22.2950551,24.9005143 C21.3517924,23.2626426 20.2490669,22.0328875 17.505767,21.0139475 C11.2650975,18.6949807 8.52179763,19.0301228 6.2298584,17.9301001 C3.91359435,16.8219691 4.35414399,14.8381443 5.81903911,14.2462402 C7.08933561,13.7354188 8.72720728,13.8597457 9.56506242,13.9651533 C11.405641,14.1948878 13.711094,14.6948981 16.1489822,15.546267 C18.8679573,16.5003408 21.5734186,17.5354973 26.3708149,18.8814711 C35.9439856,21.5761213 47.3280045,13.8219071 40.506242,5.18118809 C39.2791897,7.5461018 31.9493085,14.3029981 16.9544042,9.84614931 C9.02991624,7.49474939 2.45410474,9.96777344 0.905424106,13.1975699 C0.113515858,14.8462526 0.386494469,17.9490194 3.18925506,20.0409545 C4.57577018,21.0734082 6.54067563,21.4869303 8.53531143,22.1355923 C9.45965484,22.441004 12.2434961,23.1166937 13.3921685,23.4356192 C14.819225,23.8302219 16.4381774,24.4491536 17.7273932,25.5735012 C19.0814752,26.7492011 19.6950014,27.9330094 19.9841965,28.9357328 C20.2869055,29.9789976 20.4139351,32.6033761 20.3787993,33.276363 C20.1625786,38.5224173 16.6057484,43.6468474 12.5975575,45.8360818 C10.1569665,47.1712446 9.53262932,45.3333688 10.0542617,42.8441282 C10.6731934,39.9251489 12.211063,36.5169704 13.7975823,35.1331581 C16.7354808,32.5655375 18.0409132,35.492625 18.0409132,35.492625 C19.1112055,35.200727 20.1220372,29.5438534 13.9273147,31.1060479 C6.7190577,32.9250044 -1.96760821,48.6091121 7.13798527,51.7010678 C14.0948857,54.0632788 20.3328524,46.0631136 22.6734413,37.495369 L22.6734413,37.495369 Z"></path>
    <path d="M87.2180176,19.9896021 C86.7747652,17.662527 85.8125832,14.986796 84.4585012,12.7516147 C85.9288018,12.0732223 87.4288328,11.6245644 89.9288844,11.5137513 C93.6019333,11.3488831 96.1911759,13.7164995 96.1911759,13.7164995 C96.1911759,13.7164995 100.399371,11.2515837 96.761458,6.98122527 C92.888405,2.87303231 85.6423094,5.77579497 80.7124779,8.32990178 C75.2583112,2.97033162 66.9500314,-0.235139992 57.3363194,2.72167784 C52.9551478,4.07035434 48.3766749,6.46770115 46.057708,10.4110258 C45.2685026,11.7542968 44.7333564,13.8056906 45.0901205,16.1273601 C45.8522984,21.0436779 51.6686347,22.4518151 57.1660456,22.0436985 C58.7066179,21.9301827 62.6148068,21.0734082 66.663539,19.5544579 C71.7447251,17.6490132 77.1934863,14.9516602 80.0989517,14.181374 C82.5584619,16.3706084 84.3530936,20.3896103 84.0882233,24.5167226 C83.6341598,31.4655148 77.7745793,38.0602456 76.961049,39.084591 C76.1745463,40.0765034 75.1042539,40.9008448 74.9420884,40.9981441 C71.6582368,43.0306185 72.7150154,34.3709802 76.1015718,30.981721 C78.7583834,28.3276121 80.7313972,30.2844093 80.7313972,30.2844093 C82.1395344,28.4924804 81.1854606,24.714024 74.6637043,27.646517 C70.1014479,29.6979107 66.9473287,35.2439712 66.4338046,39.7089283 C65.9689301,43.7603633 67.0230059,47.2955714 69.7473865,47.8361232 C74.9366829,48.9469569 80.4394993,41.9441096 82.3287275,38.8656676 C85.0747301,34.395305 88.8775114,28.7141066 87.2180176,19.9896021 L87.2180176,19.9896021 Z M54.7335629,17.3192766 C52.3118913,14.7949002 54.2632829,11.6029424 55.9822373,10.4434589 C58.2687711,8.90558934 61.3985654,8.11368109 63.1175199,7.9569211 C67.2959845,7.57042663 73.1366457,8.54882522 76.2286015,11.0191465 C71.6582368,13.7273106 58.4958028,21.2463848 54.7335629,17.3192766 L54.7335629,17.3192766 Z"></path>
    <circle cx="32.9385182" cy="24.3734764" r="3.4865585"></circle>
    <circle cx="95.7127877" cy="20.2004172" r="3.4865585"></circle>
</svg>
