<svg xmlns="http://www.w3.org/2000/svg" width="100" height="64" viewBox="0 0 100 64" fill="#fff">
    <path d="M47.2843491,60.7638518 C47.2843491,61.4345345 47.8452837,61.9881525 48.5330383,61.9881525 L52.0791206,61.9881525 C52.7644364,61.9881525 53.3229322,61.4345345 53.3229322,60.7638518 L53.3229322,41.6774418 L47.2794714,53.4424356 L47.2843491,60.7638518 L47.2843491,60.7638518 Z M44.3723668,8.26281075 L56.242231,8.26281075 L56.242231,6.66536652 L44.3723668,6.66536652 L44.3723668,8.26281075 L44.3723668,8.26281075 Z M54.0448306,2.36080307 L46.5697672,2.36080307 C45.3722937,2.36080307 44.3674891,3.34121922 44.3674891,4.51430422 L44.3674891,5.44594345 L56.2349145,5.44594345 L56.2349145,4.51430422 C56.242231,3.33878038 55.2398653,2.36080307 54.0448306,2.36080307 L54.0448306,2.36080307 Z M44.3723668,11.0796781 L56.242231,11.0796781 L56.242231,9.48223382 L44.3723668,9.48223382 L44.3723668,11.0796781 L44.3723668,11.0796781 Z M44.3723668,13.1990354 C44.3723668,14.3745592 45.3722937,15.3525365 46.5697672,15.3525365 L54.0497083,15.3525365 C55.2398653,15.3525365 56.2446699,14.3696815 56.2446699,13.1990354 L56.2446699,12.2966623 L44.3748057,12.2966623 L44.3723668,13.1990354 L44.3723668,13.1990354 Z M75.5871587,20.4472861 L65.0537822,20.4472861 C61.790606,20.4472861 59.0078826,23.1153838 59.0078826,26.3761211 L59.0078826,60.7419022 C59.0078826,61.2491822 59.5029683,61.9101095 60.1590179,61.9101095 L63.7807045,61.9101095 C64.5855237,61.9101095 65.0659764,61.188211 65.0513433,60.807751 L65.0513433,44.7064887 L70.7899483,44.7064887 L70.7899483,60.7540964 C70.7899483,61.2101606 71.2143075,61.854016 71.9386448,61.9101095 L75.7115398,61.9101095 C75.7115398,61.9101095 76.8480421,61.8564549 76.8480421,60.4614349 L76.8480421,21.7764573 C76.8456033,21.5155007 76.6578121,20.4692357 75.5871587,20.4472861 L75.5871587,20.4472861 Z M70.7899483,40.0824364 L65.0513433,40.0824364 L65.0513433,26.3785599 L70.7899483,26.3785599 L70.7899483,40.0824364 L70.7899483,40.0824364 Z M52.0791206,20.3180273 L48.5354772,20.3180273 C47.8428449,20.3180273 47.286788,20.8692065 47.286788,21.5398892 L47.286788,43.5334037 L53.3302487,31.7659711 L53.3302487,21.5398892 C53.3278099,20.8667676 52.7644364,20.3180273 52.0791206,20.3180273 L52.0791206,20.3180273 Z M40.3555872,20.3180273 L36.8095049,20.3180273 C36.1217503,20.3180273 35.5632545,20.8692065 35.5632545,21.5398892 L35.5632545,38.5264526 L29.8270884,38.5264526 L29.8270884,21.5398892 C29.8270884,20.8667676 29.2588372,20.3180273 28.5783992,20.3180273 L25.0323169,20.3180273 C24.3445622,20.3180273 23.7836276,20.8692065 23.7836276,21.5398892 L23.7836276,60.6126433 C23.7836276,61.2857649 24.3470011,61.8393829 25.0323169,61.8393829 L28.5783992,61.8393829 C29.2661538,61.8393829 29.8270884,61.2857649 29.8270884,60.6126433 L29.8270884,43.1553826 L35.5632545,43.1553826 L35.5632545,60.6126433 C35.5632545,61.2857649 36.126628,61.8393829 36.8095049,61.8393829 L40.3555872,61.8393829 C41.0433418,61.8393829 41.6042764,61.2857649 41.6042764,60.6126433 L41.6042764,21.5398892 C41.6042764,20.8667676 41.0433418,20.3180273 40.3555872,20.3180273 L40.3555872,20.3180273 Z M97.0441271,20.3180273 L93.4931671,20.3180273 C92.8102902,20.3180273 92.2444779,20.8692065 92.2444779,21.5398892 L92.2444779,38.5264526 L86.5083117,38.5264526 L86.5083117,21.5398892 C86.5083117,20.8667676 85.9449383,20.3180273 85.2620613,20.3180273 L81.7135402,20.3180273 C81.0306633,20.3180273 80.4672898,20.8692065 80.4672898,21.5398892 L80.4672898,60.6126433 C80.4672898,61.2857649 81.0282244,61.8393829 81.7135402,61.8393829 L85.2620613,61.8393829 C85.9498159,61.8393829 86.5083117,61.2857649 86.5083117,60.6126433 L86.5083117,43.1553826 L92.2444779,43.1553826 L92.2444779,60.6126433 C92.2444779,61.2857649 92.812729,61.8393829 93.4931671,61.8393829 L97.0441271,61.8393829 C97.7294428,61.8393829 98.2903775,61.2857649 98.2903775,60.6126433 L98.2903775,21.5398892 C98.2928163,20.8667676 97.7294428,20.3180273 97.0441271,20.3180273 L97.0441271,20.3180273 Z M18.9010576,20.3180273 L15.3549753,20.3180273 C14.6672207,20.3180273 14.108725,20.8692065 14.108725,21.5398892 L14.108725,43.9797126 L8.37011998,43.9797126 L8.37011998,23.064168 L8.36280344,23.064168 L8.36280344,21.5350115 C8.36280344,20.8618899 7.80430767,20.3131496 7.12143075,20.3131496 L3.5777873,20.3131496 C2.89491038,20.3131496 2.34373115,20.8472569 2.33153692,21.5081842 C2.33153692,21.5130619 2.32909807,21.5276949 2.32909807,21.5350115 L2.32909807,23.0666069 L2.33153692,23.0666069 L2.33153692,43.9797126 C2.33153692,47.2453276 5.11182153,49.9719576 8.37743652,49.9719576 L14.1160415,49.9719576 L14.1160415,55.9032314 L8.35060921,55.9032314 L8.35060921,54.6716141 C8.35060921,54.4252906 8.27012729,54.2009168 8.14330729,54.0058091 C8.08233613,53.9155718 8.0067319,53.8424064 7.93112767,53.7643633 C7.71163152,53.5716945 7.42140883,53.4448745 7.10435883,53.4448745 L3.55827653,53.4448745 C3.23878768,53.4448745 2.94856499,53.5716945 2.72906884,53.7643633 C2.52176692,53.9472768 2.38275269,54.1936003 2.33397576,54.466751 C2.32422038,54.5374776 2.3095873,54.6008876 2.3095873,54.6716141 L2.3095873,56.2080872 L2.31202615,56.2080872 C2.28032115,57.4031218 2.4998173,61.8369441 7.78723575,61.8369441 L14.1160415,61.8369441 C17.43775,61.8369441 20.1570634,59.0493429 20.1570634,55.9032314 L20.1570634,21.5350115 C20.1497469,20.8667676 19.5888123,20.3180273 18.9010576,20.3180273 L18.9010576,20.3180273 Z"></path>
</svg>
