<svg xmlns="http://www.w3.org/2000/svg" viewBox="0 0 101 59" width="101" height="59">
    <path d="M33.3991935,22.316129 L33.3991935,33.3459677 L0.307258065,33.3459677 L0.307258065,22.316129 L11.3370968,22.316129 L11.3370968,11.2862903 L0.307258065,11.2862903 L0.307258065,0.256451613 L22.3681452,0.256451613 L22.3681452,22.3165323 L33.3991935,22.3165323 L33.3991935,22.316129 Z M66.4883065,22.316129 L66.4883065,11.2862903 L55.4572581,11.2862903 L55.4572581,0.256451613 L44.4274194,0.256451613 L44.4274194,11.2862903 L33.3991935,11.2862903 L33.3991935,22.316129 L44.4274194,22.316129 L44.4274194,33.3459677 L55.4572581,33.3459677 L55.4572581,22.316129 L66.4883065,22.316129 L66.4883065,22.316129 Z M88.5475806,22.316129 L88.5475806,22.316129 L88.5475806,0.256048387 L66.4883065,0.256048387 L66.4883065,11.2858871 L77.5129032,11.2858871 L77.5129032,22.3157258 L66.4883065,22.3157258 L66.4883065,33.3455645 L99.5766129,33.3455645 L99.5766129,22.3157258 L88.5475806,22.3157258 L88.5475806,22.316129 Z" fill="#db332d"></path>
    <g transform="translate(0.403226, 43.951613)" fill="#fff">
        <path d="M0.00564516129,1.7608871 L0.00564516129,0.508064516 L8.18346774,0.508064516 L8.18346774,1.7608871 L4.88145161,1.7608871 L4.88145161,11.6080645 L3.30725806,11.6080645 L3.30725806,1.7608871 L0.00564516129,1.7608871 L0.00564516129,1.7608871 Z"></path>
        <path d="M9.76572581,11.6080645 L9.76572581,0.508064516 L11.3024194,0.508064516 L11.3024194,8.74314516 L11.2455645,9.31209677 L11.283871,9.31209677 L17.3931452,0.697983871 L17.4689516,0.508064516 L18.9487903,0.508064516 L18.9298387,0.546774194 L18.9681452,0.508064516 L18.9681452,11.6080645 L17.4116935,11.6080645 L17.4116935,3.42983871 L17.4693548,2.80443548 L17.4310484,2.80443548 L11.3592742,11.4185484 L11.2645161,11.6080645 L9.76572581,11.6080645 L9.76572581,11.6080645 Z"></path>
        <path d="M27.0887097,11.6080645 L27.0887097,0.508064516 L28.6443548,0.508064516 L28.6443548,5.46008065 L34.5641129,5.46008065 L34.5641129,0.508064516 L36.1391129,0.508064516 L36.1391129,11.6080645 L34.5641129,11.6080645 L34.5641129,6.73346774 L28.6443548,6.73346774 L28.6443548,11.6080645 L27.0887097,11.6080645 L27.0887097,11.6080645 Z"></path>
        <path d="M38.9717742,11.6080645 L38.9717742,0.508064516 L46.0298387,0.508064516 L46.0298387,1.7983871 L40.5274194,1.7983871 L40.5274194,5.36532258 L45.5560484,5.36532258 L45.5560484,6.65685484 L40.5274194,6.65685484 L40.5274194,10.3189516 L46.4665323,10.3189516 L46.4665323,11.6080645 L38.9717742,11.6080645 L38.9717742,11.6080645 Z"></path>
        <path d="M53.2770161,6.06814516 C53.2770161,4.29677419 53.7778226,2.89032258 54.7766129,1.84717742 C55.7762097,0.802419355 57.1491935,0.280241935 58.8939516,0.280241935 C60.6516129,0.280241935 62.0314516,0.802419355 63.0306452,1.84717742 C64.0302419,2.89032258 64.5302419,4.29677419 64.5302419,6.06814516 C64.5302419,7.85120968 64.0302419,9.26209677 63.0306452,10.2987903 C62.0314516,11.3366935 60.6520161,11.8548387 58.8939516,11.8548387 C57.1358871,11.8548387 55.7604839,11.3366935 54.7673387,10.2987903 C53.7737903,9.26209677 53.2770161,7.85120968 53.2770161,6.06814516 L53.2770161,6.06814516 Z M54.8709677,6.06814516 C54.8709677,7.44717742 55.2294355,8.53790323 55.9431452,9.34193548 C56.6576613,10.1447581 57.6415323,10.5455645 58.8935484,10.5455645 C60.1584677,10.5455645 61.1487903,10.1447581 61.8625,9.34193548 C62.5774194,8.53790323 62.9354839,7.44717742 62.9354839,6.06814516 C62.9354839,4.7016129 62.5774194,3.61491935 61.8625,2.80443548 C61.1483871,1.99556452 60.1580645,1.58991935 58.8935484,1.58991935 C57.653629,1.58991935 56.6737903,1.99556452 55.9528226,2.80443548 C55.2326613,3.61491935 54.8709677,4.7016129 54.8709677,6.06814516 L54.8709677,6.06814516 Z"></path>
        <path d="M65.3947581,10.3564516 L66.191129,10.3564516 C66.6846774,9.30645161 67.0899194,7.88709677 67.4052419,6.09637097 C67.7209677,4.30725806 67.8814516,2.44435484 67.8814516,0.508467742 L74.825,0.508467742 L74.825,10.3568548 L76.1540323,10.3568548 L76.1153226,14.3419355 L74.7487903,14.3419355 L74.7487903,11.608871 L66.7225806,11.608871 L66.7225806,14.3419355 L65.4326613,14.3419355 L65.3947581,10.3564516 L65.3947581,10.3564516 Z M67.7282258,10.3564516 L73.2697581,10.3564516 L73.2697581,1.76129032 L69.3596774,1.76129032 C69.2459677,5.21532258 68.7020161,8.07903226 67.7282258,10.3564516 L67.7282258,10.3564516 Z"></path>
        <path d="M78.1241935,11.6080645 L78.1241935,0.508064516 L79.6616935,0.508064516 L79.6616935,8.74314516 L79.603629,9.31209677 L79.6419355,9.31209677 L85.7516129,0.697983871 L85.8274194,0.508064516 L87.3072581,0.508064516 L87.2887097,0.546774194 L87.3262097,0.508064516 L87.3262097,11.6080645 L85.7705645,11.6080645 L85.7705645,3.42983871 L85.8278226,2.80443548 L85.7895161,2.80443548 L79.7177419,11.4185484 L79.6233871,11.6080645 L78.1241935,11.6080645 L78.1241935,11.6080645 Z"></path>
        <path d="M90.15,11.6080645 L90.15,0.508064516 L91.7052419,0.508064516 L91.7052419,5.46008065 L97.6245968,5.46008065 L97.6245968,0.508064516 L99.2008065,0.508064516 L99.2008065,11.6080645 L97.6245968,11.6080645 L97.6245968,6.73346774 L91.7052419,6.73346774 L91.7052419,11.6080645 L90.15,11.6080645 L90.15,11.6080645 Z"></path>
    </g>
</svg>
