<svg xmlns="http://www.w3.org/2000/svg" viewBox="0 0 100 54" width="100" height="54" fill="#fff">
    <path d="M17.4534884,29.2418605 L17.4534884,52.5790698 L11.8767442,52.5790698 L11.8767442,34.7395349 L5.87209302,34.7395349 L5.87209302,52.5790698 L0.293023256,52.5790698 L0.293023256,29.2418605 L17.4534884,29.2418605 Z"></path>
    <path d="M17.4534884,2.32790698 L17.4534884,25.6651163 L11.8767442,25.6651163 L11.8767442,7.83023256 L5.87209302,7.83023256 L5.87209302,25.6651163 L0.293023256,25.6651163 L0.293023256,2.32790698 L17.4534884,2.32790698 Z"></path>
    <path d="M31.927907,16.5302326 L30.1627907,11.7813953 L28.4674419,16.3976744 L24.9767442,25.6651163 L19.0046512,25.6651163 L28.1395349,2.30232558 L32.1209302,2.30232558 L41.6116279,25.6651163 L35.3186047,25.6651163 L31.927907,16.5302326 Z"></path>
    <path d="M92.3465116,16.1255814 C91.4930233,18.4790698 89.2860465,20.1534884 86.6790698,20.1534884 C83.3534884,20.1534884 80.6511628,17.3953488 80.6511628,13.9906977 C80.6511628,10.5883721 83.3511628,7.83023256 86.6790698,7.83023256 C89.2465116,7.83023256 91.4395349,9.46976744 92.3093023,11.7813953 L97.9,11.7813953 C96.8837209,6.39069767 92.2488372,2.31860465 86.6767442,2.31860465 C80.3744186,2.31860465 75.2534884,7.54418605 75.2534884,13.9976744 C75.2534884,20.4418605 80.3744186,25.6697674 86.6767442,25.6697674 C92.2674419,25.6697674 96.927907,21.5604651 97.9093023,16.127907 L92.344186,16.127907 L92.344186,16.1255814 L92.3465116,16.1255814 Z"></path>
    <path d="M62.1116279,20.0116279 C58.7813953,20.0116279 56.0813953,17.2511628 56.0813953,13.8534884 C56.0813953,10.4511628 58.7813953,7.69069767 62.1116279,7.69069767 C65.444186,7.69069767 68.144186,10.4534884 68.144186,13.8534884 C68.144186,17.2534884 65.444186,20.0116279 62.1116279,20.0116279 M62.1116279,2.31395349 C56.8139535,2.31395349 52.3581395,6.00697674 51.0674419,11.0116279 L48.727907,11.0116279 L48.727907,2.32325581 L43.1813953,2.32325581 L43.1813953,25.6511628 L48.727907,25.6511628 L48.727907,16.6813953 L50.9976744,16.6813953 C52.1883721,21.8302326 56.7116279,25.6651163 62.1116279,25.6651163 C68.4209302,25.6651163 73.5372093,20.4395349 73.5372093,13.9883721 C73.5372093,7.53953488 68.4209302,2.31395349 62.1116279,2.31395349"></path>
    <path d="M31.927907,43.4465116 L30.1627907,38.6930233 L28.4674419,43.3093023 L24.9767442,52.5790698 L19.0046512,52.5790698 L28.1395349,29.2139535 L32.1209302,29.2139535 L41.6116279,52.5790698 L35.3186047,52.5790698 L31.927907,43.4465116 Z"></path>
    <path d="M92.3465116,43.0395349 C91.4930233,45.3906977 89.2860465,47.0651163 86.6790698,47.0651163 C83.3534884,47.0651163 80.6511628,44.3023256 80.6511628,40.9046512 C80.6511628,37.5023256 83.3511628,34.7418605 86.6790698,34.7418605 C89.2465116,34.7418605 91.4395349,36.3837209 92.3093023,38.6930233 L97.9,38.6930233 C96.8837209,33.3023256 92.2488372,29.2302326 86.6767442,29.2302326 C80.3744186,29.2302326 75.2534884,34.4581395 75.2534884,40.9093023 C75.2534884,47.3534884 80.3744186,52.5837209 86.6767442,52.5837209 C92.2674419,52.5837209 96.927907,48.4744186 97.9093023,43.0418605 L92.3465116,43.0395349 L92.3465116,43.0395349 Z"></path>
    <path d="M62.1116279,46.9255814 C58.7813953,46.9255814 56.0813953,44.1627907 56.0813953,40.7627907 C56.0813953,37.3627907 58.7813953,34.6093023 62.1116279,34.6093023 C65.444186,34.6093023 68.144186,37.3697674 68.144186,40.7627907 C68.144186,44.1627907 65.444186,46.9255814 62.1116279,46.9255814 M62.1116279,29.2232558 C56.8139535,29.2232558 52.3581395,32.9162791 51.0674419,37.9209302 L48.727907,37.9209302 L48.727907,29.2348837 L43.1813953,29.2348837 L43.1813953,52.5627907 L48.727907,52.5627907 L48.727907,43.5906977 L50.9976744,43.5906977 C52.1883721,48.7395349 56.7116279,52.5790698 62.1116279,52.5790698 C68.4209302,52.5790698 73.5372093,47.3488372 73.5372093,40.9 C73.5372093,34.4511628 68.4209302,29.2232558 62.1116279,29.2232558"></path>
</svg>
