<svg xmlns="http://www.w3.org/2000/svg" viewBox="0 0 100 21" width="100" height="21" fill="#fff">
    <path d="M41.1068182,1.15681818 L46.0045455,12.7068182 L50.9022727,1.15681818 L56.7454545,1.15681818 L48.4477273,19.7613636 L43.5636364,19.7613636 L35.2659091,1.15681818 L41.1068182,1.15681818 L41.1068182,1.15681818 Z"></path>
    <path d="M63.7068182,1.15681818 L68.6045455,12.7068182 L73.5,1.15681818 L79.3431818,1.15681818 L71.0431818,19.7613636 L66.1568182,19.7613636 L57.8613636,1.15681818 L63.7068182,1.15681818 L63.7068182,1.15681818 Z"></path>
    <path d="M25.3295455,1.15681818 C20.1340909,1.15681818 15.925,5.36818182 15.925,10.5590909 C15.925,15.75 20.1363636,19.9613636 25.3295455,19.9613636 C30.5227273,19.9613636 34.7318182,15.75 34.7318182,10.5590909 C34.7318182,5.36818182 30.5227273,1.15681818 25.3295455,1.15681818 L25.3295455,1.15681818 Z M25.3272727,15.1704545 C22.7818182,15.1704545 20.7204545,13.1068182 20.7204545,10.5590909 C20.7204545,8.01363636 22.7818182,5.95 25.3272727,5.95 C27.875,5.95 29.9386364,8.01363636 29.9386364,10.5590909 C29.9386364,13.1068182 27.875,15.1704545 25.3272727,15.1704545 L25.3272727,15.1704545 Z"></path>
    <path d="M94.3590909,1.15681818 L94.3590909,2.70454545 C92.8772727,1.72727273 91.1045455,1.15681818 89.1977273,1.15681818 C84.0022727,1.15681818 79.7931818,5.36818182 79.7931818,10.5590909 C79.7931818,15.75 84.0022727,19.9613636 89.1977273,19.9613636 C91.1068182,19.9613636 92.8772727,19.3909091 94.3590909,18.4113636 L94.3590909,19.9613636 L99.6954545,19.9613636 L99.6954545,1.15454545 L94.3590909,1.15681818 L94.3590909,1.15681818 Z M89.1931818,15.1704545 C86.65,15.1704545 84.5863636,13.1068182 84.5863636,10.5590909 C84.5863636,8.01363636 86.65,5.95 89.1931818,5.95 C91.7386364,5.95 93.8022727,8.01363636 93.8022727,10.5590909 C93.8022727,13.1068182 91.7386364,15.1704545 89.1931818,15.1704545 L89.1931818,15.1704545 Z"></path>
    <ellipse cx="6.375" cy="10.5727273" rx="4.60909091" ry="4.60909091"></ellipse>
</svg>
