<svg xmlns="http://www.w3.org/2000/svg" viewBox="0 0 100 51" width="100" height="51" fill="#db352b">
    <path d="M66.4474008,22.2099039 L59.288002,22.2222222 L59.288002,20.443459 L62.8085735,20.443459 L62.8085735,13.1682681 L59.2781474,13.1682681 L59.2781474,11.2884947 L66.4498645,11.2884947 L66.4498645,0.381867455 L88.3789111,0.381867455 L88.3789111,22.2099039 L99.2953929,22.2099039 L99.2953929,33.1805864 L66.4547918,33.1805864 L66.4671101,22.2049766 C66.4671101,22.2049766 73.6831732,22.187731 77.3737374,22.187731 L77.3737374,11.3057403 L66.4523282,11.300813 L66.4474008,22.2099039 L66.4474008,22.2099039 Z"></path>
    <path d="M33.4540527,33.1855136 L0.859817687,33.1855136 L0.837644737,22.2468588 L11.6900714,22.2468588 L11.6900714,11.2811037 L0.84996304,11.2811037 L0.84996304,0.359694506 L22.6977088,0.359694506 L22.7223455,22.1852673 L33.4614437,22.1754126 L33.4540527,33.1855136 L33.4540527,33.1855136 Z"></path>
    <path d="M55.4052722,14.9741315 L59.0613452,14.9741315 L59.0613452,18.5932496 L55.4619365,18.5932496 L55.4619365,22.2468588 L51.9019463,22.2468588 L51.9019463,25.8462676 L48.2163094,25.8462676 L48.2163094,22.3010594 L44.5503818,22.3010594 L44.5503818,18.6375955 L40.9682188,18.6375955 L40.9682188,15.0135501 L44.4592264,15.0135501 L44.4592264,11.3180586 L48.102981,11.3180586 L48.102981,7.7703868 L51.8847007,7.7703868 L51.8847007,11.2318305 L55.4052722,11.2318305 L55.4052722,14.9741315 L55.4052722,14.9741315 L55.4052722,14.9741315 Z M52.6508992,19.5368317 L52.6508992,14.1069229 L47.3195369,14.1069229 L47.3195369,19.5368317 L52.6508992,19.5368317 L52.6508992,19.5368317 Z"></path>
    <path d="M33.4466617,11.3500863 L40.7735896,11.3500863 L40.7735896,13.059867 L37.2727273,13.059867 L37.2727273,20.4040404 L40.7760532,20.4040404 L40.7760532,22.2000493 L33.4417344,22.2000493 C33.4417344,22.2000493 33.4466617,15.0307958 33.4466617,11.3500863 L33.4466617,11.3500863 L33.4466617,11.3500863 Z"></path>
    <path d="M44.5922641,0.339985218 L55.370781,0.339985218 L55.370781,7.51170239 L53.7102734,7.51170239 L53.7102734,4.00098546 L46.3513181,4.00098546 L46.3513181,7.48460212 L44.5922641,7.48460212 L44.5922641,0.339985218 L44.5922641,0.339985218 Z"></path>
    <path d="M53.6807095,29.5959596 L53.6807095,26.0704607 L55.3609264,26.0704607 L55.3609264,33.175659 L44.5996551,33.175659 L44.5996551,26.0655333 L46.2946538,26.0655333 L46.2946538,29.5959596 L53.6807095,29.5959596 L53.6807095,29.5959596 Z"></path>
    <path d="M38.9652624,38.7730969 C40.0443459,38.7386056 41.0840108,38.6104952 42.1064302,38.6893323 C43.3555063,38.7878788 44.3656073,39.6698694 44.3927076,40.8130081 C44.4715447,43.7546194 44.4198079,46.7011579 44.4198079,49.7289973 L42.8430647,49.7289973 L42.8430647,48.4725302 C42.8430647,46.2946538 42.8504558,44.1167776 42.8430647,41.9413648 C42.8406011,40.2882484 42.3725056,39.9014535 40.5543237,40.167529 L40.5543237,49.7191426 L38.9726533,49.7191426 C38.9652624,46.1419069 38.9652624,42.5498891 38.9652624,38.7730969 L38.9652624,38.7730969 L38.9652624,38.7730969 Z"></path>
    <path d="M7.5043114,40.1872383 L7.5043114,49.7314609 L5.96452328,49.7314609 L5.96452328,38.8001971 C6.98201527,38.7410692 7.94530673,38.6006405 8.89874354,38.6474501 C10.2291205,38.7115053 11.3550135,39.6058142 11.4018231,40.842572 C11.5052969,43.7841833 11.4338507,46.7331856 11.4338507,49.7437793 L9.86942596,49.7437793 L9.86942596,48.4602119 C9.8718896,46.2798719 9.87928061,44.0995319 9.86942596,41.9216556 C9.86203495,40.3104213 9.34220253,39.8965263 7.5043114,40.1872383 L7.5043114,40.1872383 L7.5043114,40.1872383 Z"></path>
    <path d="M84.8706578,49.7511702 L83.313624,49.7511702 L83.313624,46.7898497 C83.313624,45.1170239 83.3308697,43.4466617 83.306233,41.7762996 C83.2840601,40.2931757 82.6385809,39.847253 80.9485095,40.2315841 L80.9485095,49.7462429 L79.3569844,49.7462429 L79.3569844,38.9578714 C80.5395417,38.5883222 81.7491993,38.4503573 82.9761025,38.7780241 C84.062577,39.0687362 84.8066026,39.832471 84.8386302,40.9214092 C84.9248584,43.8285292 84.8706578,46.7405765 84.8706578,49.7511702 L84.8706578,49.7511702 L84.8706578,49.7511702 Z"></path>
    <path d="M52.0448386,43.022912 C52.0768663,42.7346637 52.1039665,42.5449618 52.1088938,42.3552599 C52.18034,40.1699926 52.0546932,40.0394186 49.9113082,40.0172457 C49.5269771,40.0147819 49.150037,39.9827543 48.8001971,39.9655088 C48.4996304,39.3397389 48.6967233,38.9701897 49.2633654,38.8790342 C50.0246366,38.7558512 50.8056172,38.6154225 51.569352,38.6646958 C53.0746489,38.7607785 53.6363636,39.3840847 53.6733186,40.9016999 C53.7102734,42.6903178 53.6881005,44.4789357 53.6930279,46.2675535 L53.6930279,49.7314609 C51.9709288,50.0517369 50.2857846,50.5617147 48.874107,49.2584381 C47.5880759,48.0758808 47.7950234,46.4572555 48.2089185,44.9938408 C48.7188963,43.1510224 50.436068,43.2126139 52.0448386,43.022912 L52.0448386,43.022912 L52.0448386,43.022912 Z M52.049766,44.5553092 C51.1308204,44.4937177 50.283321,44.3483616 49.8644987,45.2057157 C49.4087213,46.1419069 49.3717665,47.2012811 49.9211628,48.102981 C50.3941858,48.8765706 51.2195122,48.7386056 52.049766,48.54644 L52.049766,44.5553092 L52.049766,44.5553092 Z"></path>
    <path d="M92.4956886,43.0056665 C92.4956886,42.325696 92.5080069,41.6802168 92.4907613,41.0273467 C92.4735157,40.3695492 92.1187485,40.0320276 91.4634146,40.0246366 C90.6947524,40.0172457 89.9260902,40.0246366 89.1993102,40.0246366 C88.9751171,39.4382853 88.9948263,38.9775807 89.5590046,38.9283075 C90.6282335,38.8272974 91.7048534,38.7657059 92.776546,38.8272974 C93.4392707,38.8642523 93.8556295,39.3840847 93.9960582,40.0665189 C94.0379404,40.2956393 94.1118502,40.5247598 94.1118502,40.7514166 C94.1192412,43.6979552 94.1192412,46.6469574 94.1192412,49.6994333 C92.4882976,50.0763735 90.8770633,50.5025869 89.4358216,49.3840847 C88.0734171,48.3271741 88.2163094,46.7553585 88.5168761,45.3017985 C88.9356985,43.2224686 90.7489529,43.2249322 92.4956886,43.0056665 L92.4956886,43.0056665 L92.4956886,43.0056665 Z M92.4464154,44.6513919 C91.5619611,44.3902439 90.8277901,44.4493717 90.2808574,45.1613698 C89.8620349,45.7083025 89.9063809,47.5092387 90.3054939,48.0906627 C90.6922888,48.6597684 91.3155949,48.7755605 92.4464154,48.4503573 L92.4464154,44.6513919 L92.4464154,44.6513919 Z"></path>
    <path d="M70.0344912,44.3656073 C70.0344912,43.3899976 69.9975364,42.4217788 70.0394186,41.4486326 C70.1084011,39.7708795 71.2589308,38.6252772 72.8332101,38.6203498 C74.4000986,38.6129589 75.6319291,39.7536339 75.6861296,41.4067504 C75.7501847,43.3481153 75.7501847,45.2919438 75.6959842,47.2357723 C75.6442474,48.9578714 74.4173441,50.0763735 72.7666913,50.0418822 C71.170239,50.0049273 70.123183,48.9159892 70.0566642,47.1643262 C70.0197093,46.2330623 70.0492732,45.2993348 70.0492732,44.3656073 L70.0344912,44.3656073 L70.0344912,44.3656073 Z M71.6334073,44.2892338 L71.6826805,44.2892338 C71.6826805,45.370781 71.6407982,46.4597192 71.7073171,47.5338754 C71.7418083,48.1719635 72.1433851,48.6080315 72.8529194,48.6080315 C73.5501355,48.6080315 73.8851934,48.1694999 74.0453313,47.5535846 C74.0847499,47.4057649 74.0896773,47.245627 74.0896773,47.0953436 C74.0921409,45.2352796 74.1093866,43.3776792 74.0822863,41.5176152 C74.069968,40.6109879 73.6117271,40.0689825 72.9292929,40.0344912 C72.1926583,39.9975364 71.6777531,40.5420055 71.6432619,41.5003696 C71.6013797,42.4316334 71.6334073,43.3628973 71.6334073,44.2892338 L71.6334073,44.2892338 L71.6334073,44.2892338 Z"></path>
    <path d="M28.1251539,45.2648435 L24.2276423,45.2648435 C24.1709781,45.5333826 24.1167776,45.6812022 24.1118502,45.8290219 C24.055186,48.1793545 24.1488052,48.7755605 26.7824587,48.6868687 C27.2012811,48.669623 27.9354521,48.3444198 27.987189,49.150037 C28.0339985,49.8620349 27.3244641,49.8176891 26.8686869,49.8989899 C26.2256713,50.0098546 25.5530919,50.0689825 24.9051491,50.007391 C23.5501355,49.8817442 22.5449618,48.7755605 22.4981522,47.3047548 C22.4390243,45.3264351 22.4340971,43.343188 22.4956886,41.3673318 C22.5474255,39.7462429 23.8482385,38.5760039 25.3880266,38.6203498 C26.9943335,38.6622321 28.1054446,39.8053708 28.1251539,41.4708057 C28.139936,42.6681448 28.1251539,43.8630204 28.1251539,45.2648435 L28.1251539,45.2648435 L28.1251539,45.2648435 Z M24.1488052,43.8088199 L26.5484109,43.8088199 C26.5484109,42.8479921 26.6100024,42.0004927 26.5287016,41.1653116 C26.4597192,40.4336043 25.9078591,39.9901454 25.2968711,40.0271003 C24.6045824,40.0689825 24.2177877,40.5124415 24.1709781,41.1382114 C24.0970683,42.0103474 24.1488052,42.8898743 24.1488052,43.8088199 L24.1488052,43.8088199 L24.1488052,43.8088199 Z"></path>
    <path d="M57.3860557,36.5311654 L58.8938162,36.5311654 C58.9554078,37.2924366 59.0145356,38.0044345 59.0761272,38.7706331 C59.884208,38.8149791 60.6183789,38.8519339 61.4313871,38.8962799 C61.4683419,39.3077112 61.4880512,39.6747968 61.5323972,40.1699926 C60.7144617,40.2217295 59.9556541,40.2710027 59.113082,40.3227396 C59.0662725,40.6331609 58.9874354,40.9263366 58.9849717,41.2219759 C58.9726533,43.1263859 58.9652624,45.0332594 58.982508,46.9352058 C58.99729,48.4577482 59.1475733,48.5907859 60.6504065,48.6302044 C60.9534368,48.6375955 61.2589308,48.6646958 61.5397881,48.6819414 C61.8231091,49.2017738 61.7048534,49.5195861 61.2219759,49.7536339 C59.2042375,50.7243164 57.4846021,49.7487066 57.413156,47.4919931 C57.3343188,45.1613698 57.3860557,42.8233556 57.3811284,40.4927322 C57.3860557,39.2165558 57.3860557,37.9354521 57.3860557,36.5311654 L57.3860557,36.5311654 L57.3860557,36.5311654 Z"></path>
    <path d="M15.3190441,36.533629 L16.7627495,36.533629 C16.8070954,37.2751909 16.8514412,37.9576251 16.8982508,38.7632422 C17.7112589,38.8075881 18.4996304,38.8543977 19.3446662,38.9012072 L19.3446662,40.1847745 C18.5439764,40.2315841 17.7827051,40.2734664 16.962306,40.3227396 C16.9154965,40.6159153 16.8440503,40.8745997 16.8391229,41.1308204 C16.8292683,43.1510224 16.8218773,45.1712244 16.8391229,47.1889628 C16.8489776,48.4651392 16.9992609,48.6006405 18.2409461,48.6228135 C18.6252772,48.6302044 18.9997536,48.6228135 19.6747968,48.6228135 C19.4062577,49.1352549 19.3298842,49.5466864 19.0909091,49.6895787 C17.2333087,50.8056172 15.2746982,49.7314609 15.2549889,47.5757576 C15.2204977,44.1586598 15.2451342,40.7390983 15.2500616,37.3220005 C15.2525253,37.09288 15.2894802,36.8686869 15.3190441,36.533629 L15.3190441,36.533629 L15.3190441,36.533629 Z"></path>
    <path d="M33.2692782,49.7560976 L31.7491993,49.7560976 C31.7048534,49.4456763 31.6407982,49.1894556 31.6407982,48.9258438 C31.6358709,46.0458241 31.6654348,43.1682681 31.6210889,40.2931757 C31.6087706,39.5245134 31.8773097,39.1303277 32.6139443,39.0145356 C33.5944814,38.8593249 34.5700911,38.6942597 35.6614929,38.5144124 C35.6984479,39.1007637 35.7156935,39.4703129 35.7427938,39.9457995 C34.9100764,40 34.1611234,40.0492732 33.2692782,40.1034737 L33.2692782,49.7560976 L33.2692782,49.7560976 L33.2692782,49.7560976 Z"></path>
    <path d="M99.3077112,49.9630451 C98.1571816,49.7708795 97.9132791,49.5368317 97.8763242,48.4651392 C97.8393693,46.9081055 97.8615422,45.3535354 97.8615422,43.794038 C97.8590786,41.4239961 97.8615422,39.0539541 97.8615422,36.5779748 L99.2953929,36.5779748 C99.3077112,41.0519832 99.3077112,45.5013551 99.3077112,49.9630451 L99.3077112,49.9630451 L99.3077112,49.9630451 Z"></path>
    <path d="M2.06208425,49.7610248 L0.628233556,49.7610248 L0.628233556,38.9184528 L2.06208425,38.9184528 L2.06208425,49.7610248 L2.06208425,49.7610248 Z"></path>
    <path d="M66.3217541,49.7610248 L64.8879034,49.7610248 L64.8879034,38.9110618 C65.3362897,38.8913525 65.7723577,38.8642523 66.3217541,38.8420793 L66.3217541,49.7610248 L66.3217541,49.7610248 Z"></path>
    <path d="M57.3663464,27.6472037 L57.3663464,24.18576 L60.8622813,24.18576 L60.8622813,27.6472037 L57.3663464,27.6472037 L57.3663464,27.6472037 Z"></path>
    <rect x="57.4106923" y="5.80438531" width="3.49593496" height="3.54028086"></rect>
    <path d="M42.4932249,27.6373491 L39.1155457,27.6373491 L39.1155457,24.1783691 L42.4932249,24.1783691 L42.4932249,27.6373491 L42.4932249,27.6373491 Z"></path>
    <path d="M39.1106184,9.33727519 L39.1106184,5.88322246 L42.4981522,5.88322246 L42.4981522,9.33727519 L39.1106184,9.33727519 L39.1106184,9.33727519 Z"></path>
    <path d="M66.3291452,36.5631929 C66.4030549,37.7827051 66.4030549,37.7876324 64.91254,37.8393693 L64.91254,36.5631929 L66.3291452,36.5631929 L66.3291452,36.5631929 Z"></path>
    <path d="M2.0152747,36.5631929 C2.13845775,37.7482138 2.11874846,37.7728505 0.647942838,37.8418329 L0.647942838,36.5631929 L2.0152747,36.5631929 L2.0152747,36.5631929 Z"></path>
</svg>
