<svg xmlns="http://www.w3.org/2000/svg" viewBox="0 0 100 34" width="100" height="34" fill="#96c76b">
    <path d="M22.9929398,12.9010914 L18.5909989,12.9010914 L18.5909989,25.3903193 L18.2672217,25.3903193 L18.2672217,25.3927 L15.0270694,25.3927 L15.0270694,25.3903193 L14.7032922,25.3903193 L14.7032922,12.9010914 L10.3013513,12.9010914 L10.3013513,9.65617767 L22.9953205,9.65617767 L22.9929398,12.9010914 L22.9929398,12.9010914 Z M32.3348632,17.5244388 C32.3348632,8.8514962 25.3117557,1.81886581 16.6459552,1.81886581 C7.98253544,1.81886581 0.957047195,8.84911549 0.957047195,17.5244388 C0.957047195,26.1997622 7.98015472,33.2276311 16.6459552,33.2276311 C25.3117557,33.2276311 32.3348632,26.1997622 32.3348632,17.5244388 L32.3348632,17.5244388 Z"></path>
    <path d="M89.3982071,12.9010914 L84.9962661,12.9010914 L84.9962661,25.3903193 L84.6724889,25.3903193 L84.6724889,25.3927 L81.4299559,25.3927 L81.4299559,25.3903193 L81.1061787,25.3903193 L81.1061787,12.9010914 L76.7066185,12.9010914 L76.7066185,9.65617767 L89.4005878,9.65617767 L89.3982071,12.9010914 L89.3982071,12.9010914 Z M98.7401304,17.5244388 C98.7401304,8.8514962 91.7170229,1.81886581 83.0512224,1.81886581 C74.3878027,1.81886581 67.3646951,8.84911549 67.3646951,17.5244388 C67.3646951,26.1997622 74.3878027,33.2276311 83.0512224,33.2276311 C91.7146422,33.2276311 98.7401304,26.1997622 98.7401304,17.5244388 L98.7401304,17.5244388 Z"></path>
    <path d="M44.4717453,18.3791153 L54.0731665,13.6724429 C53.0518401,12.5915985 51.6091271,11.9178564 50.0069063,11.9178564 C46.9143583,11.9178564 44.4050853,14.4271294 44.4050853,17.5244388 C44.4050853,17.8125053 44.4288924,18.1029524 44.4717453,18.3791153 M58.6131889,15.1651508 L45.9382654,21.374054 C46.9595919,22.4548984 48.4046855,23.1286406 50.0045256,23.1286406 C51.8257721,23.1286406 53.4446579,22.2596798 54.4683651,20.9098147 L54.5064566,20.890769 L57.9323046,21.624029 C56.4491195,24.4927899 53.4565615,26.4544986 50.0045256,26.4544986 C45.0764468,26.4544986 41.081608,22.4525177 41.081608,17.5244388 C41.081608,12.5915985 45.0788275,8.59437904 50.0045256,8.59437904 C54.1160194,8.59437904 57.5799589,11.3774342 58.6131889,15.1651508 M65.5363065,17.5244388 C65.5363065,8.8514962 58.5131989,1.81886581 49.8473985,1.81886581 C41.181598,1.81886581 34.1584904,8.8514962 34.1584904,17.5244388 C34.1584904,26.1997622 41.1839787,33.2300118 49.8473985,33.2300118 C58.5108182,33.2300118 65.5363065,26.1997622 65.5363065,17.5244388"></path>
</svg>
